<mxfile host="app.diagrams.net" agent="Mozilla/5.0 (Windows NT 10.0; Win64; x64) AppleWebKit/537.36 (KHTML, like Gecko) Chrome/136.0.0.0 Safari/537.36" version="27.0.6">
  <diagram name="Página-1" id="r5Hny2hP9BZjUJY1wzIF">
    <mxGraphModel dx="1489" dy="840" grid="1" gridSize="10" guides="1" tooltips="1" connect="1" arrows="1" fold="1" page="1" pageScale="1" pageWidth="827" pageHeight="1169" math="0" shadow="0">
      <root>
        <mxCell id="0" />
        <mxCell id="1" parent="0" />
        <mxCell id="8HS76lHUt157P_Qzq49f-22" value="&#xa;" style="whiteSpace=wrap;strokeWidth=2;" vertex="1" parent="1">
          <mxGeometry x="20" y="322" width="446" height="637" as="geometry" />
        </mxCell>
        <mxCell id="8HS76lHUt157P_Qzq49f-24" value="Acessar Formulário de Solicitação" style="whiteSpace=wrap;strokeWidth=2;" vertex="1" parent="1">
          <mxGeometry x="171" y="347" width="260" height="78" as="geometry" />
        </mxCell>
        <mxCell id="8HS76lHUt157P_Qzq49f-25" value="Preencher Dados da Viagem" style="whiteSpace=wrap;strokeWidth=2;" vertex="1" parent="1">
          <mxGeometry x="172" y="475" width="258" height="54" as="geometry" />
        </mxCell>
        <mxCell id="8HS76lHUt157P_Qzq49f-26" value="Validar Horários" style="whiteSpace=wrap;strokeWidth=2;" vertex="1" parent="1">
          <mxGeometry x="150" y="573" width="174" height="54" as="geometry" />
        </mxCell>
        <mxCell id="8HS76lHUt157P_Qzq49f-27" value="Submeter Solicitação" style="whiteSpace=wrap;strokeWidth=2;" vertex="1" parent="1">
          <mxGeometry x="76" y="717" width="211" height="54" as="geometry" />
        </mxCell>
        <mxCell id="8HS76lHUt157P_Qzq49f-28" value="Enviar Notificação" style="whiteSpace=wrap;strokeWidth=2;" vertex="1" parent="1">
          <mxGeometry x="60" y="867" width="191" height="54" as="geometry" />
        </mxCell>
        <mxCell id="8HS76lHUt157P_Qzq49f-29" value="Verificar Conformidade com&#xa;Carga Horária" style="whiteSpace=wrap;strokeWidth=2;" vertex="1" parent="1">
          <mxGeometry x="501" y="705" width="260" height="78" as="geometry" />
        </mxCell>
        <mxCell id="8HS76lHUt157P_Qzq49f-30" value="Registrar Solicitação&#xa;no Sistema" style="whiteSpace=wrap;strokeWidth=2;" vertex="1" parent="1">
          <mxGeometry x="501" y="855" width="260" height="78" as="geometry" />
        </mxCell>
        <mxCell id="8HS76lHUt157P_Qzq49f-31" value="Notificar Gestor sobre&#xa;Nova Solicitação" style="whiteSpace=wrap;strokeWidth=2;" vertex="1" parent="1">
          <mxGeometry x="25" y="1031" width="260" height="78" as="geometry" />
        </mxCell>
        <mxCell id="8HS76lHUt157P_Qzq49f-32" value="Exibir Alerta de&#xa;Horário Inválido" style="whiteSpace=wrap;strokeWidth=2;" vertex="1" parent="1">
          <mxGeometry x="730" y="627" width="260" height="78" as="geometry" />
        </mxCell>
        <mxCell id="8HS76lHUt157P_Qzq49f-33" value="" style="curved=1;startArrow=none;endArrow=block;entryX=0.5;entryY=0;rounded=0;" edge="1" parent="1" target="8HS76lHUt157P_Qzq49f-24">
          <mxGeometry relative="1" as="geometry">
            <Array as="points" />
            <mxPoint x="300" y="270" as="sourcePoint" />
          </mxGeometry>
        </mxCell>
        <mxCell id="8HS76lHUt157P_Qzq49f-34" value="" style="curved=1;startArrow=none;endArrow=block;exitX=0.5;exitY=1;entryX=0.5;entryY=-0.01;rounded=0;" edge="1" parent="1" source="8HS76lHUt157P_Qzq49f-24" target="8HS76lHUt157P_Qzq49f-25">
          <mxGeometry relative="1" as="geometry">
            <Array as="points" />
          </mxGeometry>
        </mxCell>
        <mxCell id="8HS76lHUt157P_Qzq49f-35" value="" style="curved=1;startArrow=none;endArrow=block;exitX=0.35;exitY=0.99;entryX=0.5;entryY=-0.01;rounded=0;" edge="1" parent="1" source="8HS76lHUt157P_Qzq49f-25" target="8HS76lHUt157P_Qzq49f-26">
          <mxGeometry relative="1" as="geometry">
            <Array as="points">
              <mxPoint x="226" y="554" />
            </Array>
          </mxGeometry>
        </mxCell>
        <mxCell id="8HS76lHUt157P_Qzq49f-36" value="" style="curved=1;startArrow=none;endArrow=block;exitX=0.39;exitY=0.99;entryX=0.5;entryY=0;rounded=0;" edge="1" parent="1" source="8HS76lHUt157P_Qzq49f-26" target="8HS76lHUt157P_Qzq49f-27">
          <mxGeometry relative="1" as="geometry">
            <Array as="points">
              <mxPoint x="181" y="669" />
            </Array>
          </mxGeometry>
        </mxCell>
        <mxCell id="8HS76lHUt157P_Qzq49f-37" value="" style="curved=1;startArrow=none;endArrow=block;exitX=0.46;exitY=1;entryX=0.5;entryY=0.01;rounded=0;" edge="1" parent="1" source="8HS76lHUt157P_Qzq49f-27" target="8HS76lHUt157P_Qzq49f-28">
          <mxGeometry relative="1" as="geometry">
            <Array as="points">
              <mxPoint x="155" y="819" />
            </Array>
          </mxGeometry>
        </mxCell>
        <mxCell id="8HS76lHUt157P_Qzq49f-38" value="&lt;&lt;include&gt;&gt;" style="curved=1;dashed=1;dashPattern=2 3;startArrow=none;endArrow=block;exitX=0.51;exitY=0.99;entryX=0;entryY=0.19;rounded=0;" edge="1" parent="1" source="8HS76lHUt157P_Qzq49f-26" target="8HS76lHUt157P_Qzq49f-29">
          <mxGeometry x="0.0857" y="3" relative="1" as="geometry">
            <Array as="points">
              <mxPoint x="233" y="669" />
            </Array>
            <mxPoint as="offset" />
          </mxGeometry>
        </mxCell>
        <mxCell id="8HS76lHUt157P_Qzq49f-39" value="&lt;&lt;include&gt;&gt;" style="curved=1;dashed=1;dashPattern=2 3;startArrow=none;endArrow=block;exitX=0.64;exitY=1;entryX=0;entryY=0.16;rounded=0;" edge="1" parent="1" source="8HS76lHUt157P_Qzq49f-27" target="8HS76lHUt157P_Qzq49f-30">
          <mxGeometry relative="1" as="geometry">
            <Array as="points">
              <mxPoint x="264" y="819" />
            </Array>
          </mxGeometry>
        </mxCell>
        <mxCell id="8HS76lHUt157P_Qzq49f-40" value="&lt;&lt;include&gt;&gt;" style="curved=1;dashed=1;dashPattern=2 3;startArrow=none;endArrow=block;exitX=0.5;exitY=1.01;entryX=0.5;entryY=0;rounded=0;" edge="1" parent="1" source="8HS76lHUt157P_Qzq49f-28" target="8HS76lHUt157P_Qzq49f-31">
          <mxGeometry relative="1" as="geometry">
            <Array as="points" />
          </mxGeometry>
        </mxCell>
        <mxCell id="8HS76lHUt157P_Qzq49f-41" value="&lt;&lt;extend&gt;&gt;" style="curved=1;dashed=1;dashPattern=2 3;startArrow=none;endArrow=block;exitX=0.73;exitY=0.99;entryX=0;entryY=0.3;rounded=0;" edge="1" parent="1" source="8HS76lHUt157P_Qzq49f-26" target="8HS76lHUt157P_Qzq49f-32">
          <mxGeometry relative="1" as="geometry">
            <Array as="points">
              <mxPoint x="322" y="669" />
            </Array>
          </mxGeometry>
        </mxCell>
        <mxCell id="8HS76lHUt157P_Qzq49f-42" value="" style="curved=1;dashed=1;dashPattern=2 3;startArrow=none;endArrow=block;exitX=0;exitY=0.28;entryX=0.65;entryY=0.99;rounded=0;" edge="1" parent="1" source="8HS76lHUt157P_Qzq49f-32" target="8HS76lHUt157P_Qzq49f-25">
          <mxGeometry relative="1" as="geometry">
            <Array as="points">
              <mxPoint x="374" y="669" />
              <mxPoint x="374" y="554" />
            </Array>
          </mxGeometry>
        </mxCell>
        <mxCell id="8HS76lHUt157P_Qzq49f-44" value="&lt;span style=&quot;text-wrap-mode: wrap;&quot;&gt;Solicitante&lt;/span&gt;" style="shape=umlActor;verticalLabelPosition=bottom;verticalAlign=top;html=1;outlineConnect=0;" vertex="1" parent="1">
          <mxGeometry x="285" y="190" width="30" height="60" as="geometry" />
        </mxCell>
      </root>
    </mxGraphModel>
  </diagram>
</mxfile>
